<svg id="Layer_1" data-name="Layer 1" xmlns="http://www.w3.org/2000/svg" viewBox="0 0 1080 1080"><path id="jnlj-logo" d="M776.3,399.14V606.83c0,33.39-25.31,54.87-61.56,49.49-22.55-3.34-39.08-23-39.08-45.78V576.07H647.3v30.36c0,19.19,5.55,35.6,15.49,48.18H573.63V399.14H544.51v215.6L433.2,399.14H404.85V606.83c0,33.39-25.32,54.87-61.56,49.49-22.55-3.34-39.09-23-39.09-45.78V576.07H275.85v30.36c0,45.53,31.15,75.48,78.28,75.48,47.52,0,79.07-29.95,79.07-75.48V462.34L545.94,681.9H727.06l0,0c46.72-.6,77.64-30.39,77.64-75.45V399.14Z"/><path d="M266.92,231.23l-16,13.64,3.83,10.74L251,258.79l-15.86-44.7,4-3.39,41.53,22.85-3.73,3.18Zm-26.17-14.51,8.77,24.41,13.92-11.84Z"/><path d="M284.93,176.1c9-5.82,16.31-3.81,20.32,2.39,3.35,5.18,3.17,11.49-2.62,16.92L323,205l-4.67,3-19.81-9.53-7.17,4.64,10.19,15.75-3.9,2.52-24.39-37.7Zm2.06,3.18-7.78,5L289.36,200l7.84-5.07c6.34-4.1,7-9.28,4.05-13.86C298.18,176.33,293.55,175,287,179.28Z"/><path d="M319.85,155.31,347.17,142l1.63,3.35L337.26,151l18.06,37-4.17,2-18.06-37-11.6,5.67Z"/><path d="M399.68,170.11c-8.75,3-16.2.21-18.72-6.19l4.63-1.61c1.6,3.38,5.77,6.69,12.84,4.22,6.07-2.12,8.42-6.82,6.9-11.19-4.37-12.49-25.62,3.78-31.2-12.16-2.28-6.55,1.61-13.29,10.05-16.23s14.88-.17,17.67,5.39L397.1,134c-1.54-2.8-5.75-5.41-11.84-3.35-5.15,1.73-8.45,5.94-6.73,10.85,4.28,12.25,25.66-3.65,31.17,12.11C411.71,159.37,408.93,166.87,399.68,170.11Z"/><path d="M483.8,113.77c-.45-4-3.75-5.8-7.29-5.34-4.08.52-6.46,3.29-6,6.66.36,2.87,2.31,5,5.88,7.86l17,12.91c.7-1.26,1.33-2.64,2-4.15l3.33-7.35,4.93-.64-3.92,9c-.93,2.13-1.89,4.06-2.86,5.81l10.79,8.13-6,.77-7-5.38c-3.86,5.29-8.44,8.14-14.87,9-9.26,1.19-16.32-3.34-17.37-11.5-.8-6.24,2.33-11.5,9.08-15.09-3.5-2.85-5.16-5.36-5.58-8.67-.72-5.61,3.3-10.14,10.33-11,6.57-.85,11.68,2.58,12.17,8.47Zm7.43,25.66-16.49-12.51c-5.95,3-8.39,7-7.76,11.87.72,5.61,5.79,9.17,12.29,8.33C484.46,146.46,488.09,144.05,491.23,139.43Z"/><path d="M584.21,102.64c10.29.94,17.48,6.63,20,15.5l-5.41-.49c-2-6.19-7.1-10.39-14.94-11.1-10.09-.93-18.47,5.6-19.54,17.3s6,19.57,16.08,20.49c7.85.72,13.59-2.5,16.7-8.08l5.4.49c-4.07,8.14-12.17,12.43-22.46,11.49-12.79-1.17-21.69-11.39-20.47-24.82S571.42,101.48,584.21,102.64Z"/><path d="M647.32,113.31c10.45,2.42,14.08,9.06,12.41,16.26-1.39,6-6.05,10.26-14,9.87l7.3,21.28-5.42-1.26-6.92-20.86-8.33-1.93-4.23,18.27-4.52-1,10.14-43.74Zm-.85,3.69-9-2.1-4.22,18.21,9.1,2.11c7.35,1.7,11.54-1.41,12.78-6.73C656.36,123,654.08,118.76,646.47,117Z"/><path d="M703.18,166.48l-19.73-7.36-7.51,8.58L671.35,166l31.31-35.63,4.9,1.83.28,47.4-4.6-1.71Zm-.08-29.92-17.05,19.56,17.13,6.38Z"/><path d="M747.51,148.74l22.21,11.55L768,163.6l-18.1-9.41-7.72,14.87L757.45,177l-1.71,3.3-15.28-7.94-9.53,18.35-4.12-2.13Z"/><path d="M789.62,172l25.23,17-2.08,3.09-10.66-7.17-23,34.17-3.85-2.59,23-34.16-10.72-7.21Z"/><path d="M816.75,248.52c-7-6.05-8.28-13.92-4-19.3l3.71,3.2c-2.13,3.08-2.91,8.35,2.75,13.23,4.87,4.2,10.12,3.89,13.14.39,8.64-10-16.07-20.3-5-33.1,4.53-5.25,12.3-5.25,19.07.59s7.58,12.81,4.16,18l-3.81-3.29c1.65-2.73,1.81-7.68-3-11.92-4.07-3.6-9.37-4.35-12.77-.41-8.47,9.83,16,20.4,5.08,33.05C832.06,253.58,824.17,254.92,816.75,248.52Z"/><path d="M219.1,802.51l-5.77-7.38-14.71,11.5L195.76,803l34.5-27,8.63,11c6.63,8.47,5.41,15.67-.26,20.11S225.81,811.09,219.1,802.51Zm3-2.32c4.83,6.18,9.38,6.5,13.62,3.18,4.44-3.48,5.13-7.89.3-14.07l-5.77-7.37-13.92,10.88Z"/><path d="M269.2,821c7.66,7.55,7.39,15,2.33,20.16-4.22,4.28-10.34,5.38-16.89.86l-4.55,21.65-4-3.92,4.66-21.09-6.1-6-12.85,13-3.31-3.26,30.75-31.21Zm-2.59,2.63L260,817.07l-12.8,13,6.67,6.57c5.4,5.32,10.54,4.92,14.28,1.13S272.19,829.09,266.61,823.59Z"/><path d="M294.26,843.52l3.61,2.92-27.56,34-3.61-2.93Z"/><path d="M342.25,877.41l-23.87,36.72-3.9-2.53L313,866.71,292.94,897.6l-3.9-2.53,23.86-36.73,3.9,2.54,1.51,44.84,20-30.84Z"/><path d="M355.81,884.86l27.46,13.24-1.58,3.27-11.61-5.59L352.64,932l-4.18-2,17.43-36.19-11.66-5.62Z"/><path d="M398.42,904l4.35,1.64-15.49,41L382.93,945Z"/><path d="M454.65,921.25l-11.3,42.32-4.49-1.2-15.33-42.22L414,955.75l-4.49-1.2,11.3-42.32,4.49,1.2,15.35,42.16,9.49-35.54Z"/><path d="M513,942.52l-5.41-.64c-1.92-5.9-7.1-10.17-14.49-11-10.22-1.2-18.89,4.85-20.21,16.12s5.71,19.22,15.93,20.42c9.7,1.14,17.54-4.19,19.43-14l-19.39-2.27.41-3.55,24.27,2.85-.37,3.17C511.1,965,501,972.78,488.36,971.3c-12.93-1.51-21.75-11.83-20.22-24.9s12.5-21.06,25.43-19.54C503.46,928,510.67,933.85,513,942.52Z"/><path d="M577.49,972.77c-9.27.76-15.77-3.73-16.58-10.39l4.89-.41c.7,3.59,3.9,7.73,11.38,7.11,6.42-.53,9.9-4.4,9.53-8.89-1.06-12.87-25.8-2.66-27.15-19.08-.56-6.75,4.93-12.17,13.86-12.9s14.48,3.46,15.76,9.39l-5,.41c-.78-3-4.19-6.5-10.62-6-5.43.39-9.7,3.57-9.29,8.63,1,12.61,25.82,2.77,27.16,19C591.88,965.54,587.28,972,577.49,972.77Z"/><path d="M630.47,923.68l-19.23,3.77,3.15,16,17.27-3.38.7,3.56-17.27,3.39,3.19,16.29,19.23-3.76.7,3.56-23.79,4.67L606,924.78l23.79-4.66Z"/><path d="M660.15,911.67c10.25-3.26,16.73.47,18.92,7.34,1.82,5.73-.06,11.65-7.11,15.34l17,14.11-5.31,1.69-16.5-13.95L659,938.79l5.54,17.44-4.43,1.41L646.85,915.9Zm1.12,3.52L652.41,918l5.52,17.38,8.93-2.84c7.21-2.29,9.26-7,7.65-12.1C672.84,915.2,668.74,912.82,661.27,915.19Z"/><path d="M720.37,887.14l4.45-2.08,2.57,47.13-4.82,2.25-34.46-32.26,4.57-2.13L723,929Z"/><path d="M738.24,877l4-2.38,22.39,37.65-4,2.38Z"/><path d="M774.69,852c8.26-6.25,17.35-7,25.06-2.3L795.41,853c-5.58-3.09-12.11-2.7-18.42,2.06-8.1,6.13-10,16.46-3.11,25.61s17.35,10.06,25.45,3.93c6.3-4.76,8.45-11,7.08-17.06l4.34-3.28c2.34,8.6-.85,17.14-9.11,23.39-10.28,7.77-23.64,6.4-31.57-4.1S764.41,859.75,774.69,852Z"/><path d="M824.35,813l-13.88,13.84L822,838.42,834.49,826l2.57,2.58L824.6,841l11.73,11.75,13.87-13.84,2.56,2.58L835.6,858.61l-31-31.05,17.16-17.12Z"/><path d="M877,813.64c-5.73,7.32-13.44,9.05-18.88,5.12l3-3.87c3.1,1.93,8.32,2.38,12.94-3.53,4-5.07,3.49-10.26-.06-13-10.17-8-19.47,17.15-32.45,7-5.33-4.17-5.58-11.88-.06-18.94s12.37-8.29,17.6-5.21l-3.11,4c-2.74-1.47-7.63-1.33-11.65,3.7-3.4,4.25-4,9.55,0,12.68,10,7.8,19.57-17.08,32.4-7C881.43,798.16,883,805.9,877,813.64Z"/><circle id="c1" cx="190.46" cy="314.62" r="13.76" style="fill:#489eec"/><circle id="m1" cx="133.74" cy="452.72" r="13.76" style="fill:#d4047a"/><circle id="y1" cx="128.89" cy="593.65" r="13.76" style="fill:#fbf114"/><circle id="b1" cx="168.81" cy="731.74" r="13.76"/><circle id="c2" cx="887.33" cy="314.62" r="13.76" style="fill:#489eec"/><circle id="m2" cx="944.05" cy="452.72" r="13.76" style="fill:#d4047a"/><circle id="y2" cx="948.9" cy="593.65" r="13.76" style="fill:#fbf114"/><circle id="b2" cx="908.98" cy="731.74" r="13.76"/></svg>